<svg width="13" height="13" viewBox="0 0 13 13" fill="none" xmlns="http://www.w3.org/2000/svg">
<path d="M7.42857 0.928571C7.42857 0.414955 7.01362 0 6.5 0C5.98638 0 5.57143 0.414955 5.57143 0.928571V5.57143H0.928571C0.414955 5.57143 0 5.98638 0 6.5C0 7.01362 0.414955 7.42857 0.928571 7.42857H5.57143V12.0714C5.57143 12.585 5.98638 13 6.5 13C7.01362 13 7.42857 12.585 7.42857 12.0714V7.42857H12.0714C12.585 7.42857 13 7.01362 13 6.5C13 5.98638 12.585 5.57143 12.0714 5.57143H7.42857V0.928571Z" fill="white"/>
</svg>
