<svg width="13" height="13" viewBox="0 0 13 13" fill="none" xmlns="http://www.w3.org/2000/svg">
<path d="M13 5.26012V7.73992C13 7.78433 12.9913 7.82831 12.9743 7.86934C12.9573 7.91036 12.9324 7.94764 12.901 7.97905C12.8696 8.01045 12.8323 8.03536 12.7913 8.05235C12.7502 8.06934 12.7063 8.07808 12.6618 8.07808H8.07808V12.6618C8.07809 12.7063 8.06935 12.7502 8.05236 12.7913C8.03537 12.8323 8.01046 12.8696 7.97906 12.901C7.94765 12.9324 7.91037 12.9573 7.86934 12.9743C7.82831 12.9913 7.78433 13 7.73992 13H5.26012C5.07355 13 4.92196 12.8487 4.92196 12.6618V8.07808H0.338157C0.248475 8.07807 0.162469 8.04244 0.0990548 7.97902C0.0356402 7.91561 9.87631e-06 7.8296 0 7.73992L0 5.26012C0 5.21571 0.00874669 5.17174 0.0257407 5.13071C0.0427347 5.08968 0.0676431 5.0524 0.0990439 5.021C0.130445 4.9896 0.167723 4.96469 0.20875 4.9477C0.249777 4.9307 0.29375 4.92196 0.338157 4.92196H4.92196V0.338157C4.92196 0.151256 5.07351 2.05186e-09 5.26012 2.05186e-09H7.73992C7.78433 -4.89013e-06 7.82831 0.00873847 7.86934 0.0257307C7.91036 0.042723 7.94764 0.0676313 7.97905 0.099033C8.01045 0.130435 8.03536 0.167715 8.05235 0.208744C8.06934 0.249774 8.07808 0.293748 8.07808 0.338157V4.92196H12.6618C12.7063 4.92195 12.7502 4.93069 12.7913 4.94768C12.8323 4.96467 12.8696 4.98958 12.901 5.02098C12.9324 5.05238 12.9573 5.08967 12.9743 5.1307C12.9913 5.17173 13 5.2157 13 5.26012Z" fill="#173635"/>
</svg>
