<svg width="13" height="15" viewBox="0 0 13 15" fill="none" xmlns="http://www.w3.org/2000/svg">
<path d="M3.96674 0.622159C4.09442 0.25 4.44844 0 4.84888 0H8.15402C8.55446 0 8.90848 0.25 9.03616 0.622159L9.28571 1.36364H12.0714C12.585 1.36364 13 1.76989 13 2.27273C13 2.77557 12.585 3.18182 12.0714 3.18182H0.928571C0.414955 3.18182 0 2.77557 0 2.27273C0 1.76989 0.414955 1.36364 0.928571 1.36364H3.71429L3.96674 0.622159ZM0.928571 4.54545H12.0714V13.1818C12.0714 14.1847 11.2386 15 10.2143 15H2.78571C1.76138 15 0.928571 14.1847 0.928571 13.1818V4.54545ZM3.48214 6.36364C3.09621 6.36364 2.78571 6.66761 2.78571 7.04545V12.5C2.78571 12.8778 3.09621 13.1818 3.48214 13.1818C3.86808 13.1818 4.17857 12.8778 4.17857 12.5V7.04545C4.17857 6.66761 3.86808 6.36364 3.48214 6.36364ZM6.5 6.36364C6.11406 6.36364 5.80357 6.66761 5.80357 7.04545V12.5C5.80357 12.8778 6.11406 13.1818 6.5 13.1818C6.88594 13.1818 7.19643 12.8778 7.19643 12.5V7.04545C7.19643 6.66761 6.88594 6.36364 6.5 6.36364ZM9.51786 6.36364C9.13192 6.36364 8.82143 6.66761 8.82143 7.04545V12.5C8.82143 12.8778 9.13192 13.1818 9.51786 13.1818C9.90379 13.1818 10.2143 12.8778 10.2143 12.5V7.04545C10.2143 6.66761 9.90379 6.36364 9.51786 6.36364Z" fill="#173635"/>
</svg>
