<svg width="13" height="13" viewBox="0 0 13 13" fill="none" xmlns="http://www.w3.org/2000/svg">
<path d="M1.67296 5.80176C2.01059 3.44043 4.04397 1.625 6.49876 1.625C7.84419 1.625 9.0627 2.1709 9.94612 3.05195C9.95119 3.05703 9.95627 3.06211 9.96135 3.06719L10.1543 3.25H8.93831C8.48899 3.25 8.12597 3.61309 8.12597 4.0625C8.12597 4.51191 8.48899 4.875 8.93831 4.875H12.1877C12.637 4.875 13 4.51191 13 4.0625V0.8125C13 0.363086 12.637 0 12.1877 0C11.7383 0 11.3753 0.363086 11.3753 0.8125V2.16836L11.0885 1.89668C9.91312 0.726172 8.28844 0 6.49876 0C3.22402 0 0.515381 2.42227 0.0660569 5.57324C0.00259298 6.01758 0.309758 6.42891 0.754006 6.49238C1.19825 6.55586 1.6095 6.24609 1.67296 5.8043V5.80176ZM12.9315 7.42676C12.9949 6.98242 12.6852 6.57109 12.2435 6.50762C11.8018 6.44414 11.388 6.75391 11.3246 7.1957C10.9869 9.55703 8.95354 11.3725 6.49876 11.3725C5.15332 11.3725 3.93482 10.8266 3.0514 9.94551C3.04632 9.94043 3.04124 9.93535 3.03617 9.93027L2.84324 9.74746H4.05921C4.50853 9.74746 4.87154 9.38437 4.87154 8.93496C4.87154 8.48555 4.50853 8.12246 4.05921 8.12246L0.812392 8.125C0.596615 8.125 0.388454 8.21133 0.23614 8.36621C0.0838269 8.52109 -0.00248409 8.72676 5.44644e-05 8.94512L0.02544 12.1697C0.0279786 12.6191 0.396069 12.9797 0.845394 12.9746C1.29472 12.9695 1.65519 12.6039 1.65012 12.1545L1.63996 10.8469L1.91159 11.1033C3.08694 12.2738 4.70908 13 6.49876 13C9.7735 13 12.4821 10.5777 12.9315 7.42676Z" fill="white"/>
</svg>
